inDegrees=no
nColumns=32
nRows=19
DataType=double
version=3
OpenSimVersion=4.5
endheader
time	pelvis_tilt	pelvis_list	pelvis_rotation	pelvis_tz	pelvis_ty	pelvis_tx	hip_flexion_r	hip_adduction_r	hip_rotation_r	knee_angle_r	ankle_angle_r	subtalar_angle_r	mtp_angle_r	hip_flexion_l	hip_adduction_l	hip_rotation_l	knee_angle_l	ankle_angle_l	subtalar_angle_l	mtp_angle_l	lumbar_extension	lumbar_bending	lumbar_rotation	arm_flex_r	arm_add_r	arm_rot_r	elbow_flex_r	arm_flex_l	arm_add_l	arm_rot_l	elbow_flex_l
0.8599999999999999	-0.07480008624745647	0.07778786757189668	-0.01460676868338037	-0.005419599999999997	0.93151289	0.9669133	0.4626036754408424	-0.1931085359869079	-0.1092965597678996	-1.074609469549875	0.01717025648940465	-0.06147752766319779	0	0.1250810565962131	0.1334317395621505	-0.2297662269695471	-0.0852106748785091	0.08216432065341044	0.2033318436193009	0	-0.1062180522146561	-0.09046555215845349	-0.07183781868366404	-0.1161807336695731	-0.09292075690818345	-0.246363442996303	0.5412565999371578	-0.1023544723509865	-0.07122613209352004	-0.3974934213924057	0.8480668161414109
0.8699999999999999	-0.07274229526295614	0.0739091048074262	-0.007992353916152894	-0.006808620000000015	0.93212725	0.9769103099999999	0.4783456827521149	-0.1876377234303141	-0.1143420656054455	-1.053873356347528	0.02125954896419335	-0.05471782680405218	0	0.1055815833453972	0.1319709832776342	-0.2273748356460603	-0.0765197764522768	0.08960023606673892	0.2146649555084888	0	-0.1101521002704738	-0.08500605055714311	-0.07923745201796913	-0.1243531403281314	-0.09219312600143437	-0.2544698540434543	0.5424445717315629	-0.1012993663638832	-0.07408015871449762	-0.3872369292913458	0.8723869296269395
0.8799999999999999	-0.07032144335350991	0.07192320273784181	-0.003731273117558689	-0.007886740000000003	0.93259893	0.98714127	0.4920753383512744	-0.1822437427108541	-0.1163426354724429	-1.028020640971489	0.03009591377679529	-0.04392635131921612	0	0.08533524792840312	0.1318689452209102	-0.2302301398480504	-0.0667825276576668	0.09576573888391136	0.2272776914925589	0	-0.1137794344609885	-0.08196990493737227	-0.08410317323459636	-0.1328330638779814	-0.09125875543426586	-0.2613595009485962	0.5427471236847315	-0.1004747368640924	-0.07602539413929103	-0.3794507257735433	0.8957054113956526
0.8899999999999999	-0.06598150280653003	0.0694352117675313	-0.0003633720011791347	-0.008996790000000005	0.93290376	0.9973411699999999	0.5026857415112697	-0.1767030436803519	-0.1183903114268858	-0.9983449623360011	0.03946702740092191	-0.03006280505541789	0	0.06283169773749243	0.1313993097568555	-0.2300388997585862	-0.05762866930270288	0.1033951256156198	0.2380320433006062	0	-0.1195032892158596	-0.07835684911093513	-0.08768952081108901	-0.1402764529656998	-0.09094076010974392	-0.2682544772166091	0.5431766132598648	-0.09883840290028628	-0.07713166480248233	-0.3718883535764591	0.9182144059666318
0.8999999999999999	-0.06255499486704386	0.06817466583646781	0.003645785985658167	-0.01003385000000001	0.93307621	1.00751035	0.5117569820880965	-0.1716054409863645	-0.1191848296337566	-0.9634783029244843	0.0484561504109754	-0.01607134064368126	0	0.04202794988503782	0.1318378073253241	-0.2338637772951587	-0.04859599003036955	0.1086278543182905	0.2517606848634704	0	-0.1243193296353288	-0.07616669843899344	-0.09243030088788298	-0.1474685340142858	-0.08969109738399897	-0.2746374161190547	0.5426910652799538	-0.09742858317732475	-0.07888979534640833	-0.3648653265154846	0.9402621775605512
0.9099999999999999	-0.06452417221275392	0.06980529333596081	0.004506700479559034	-0.01054668	0.93242212	1.01767399	0.5275023196621149	-0.1662801553790654	-0.1135575359178839	-0.9265490600032518	0.05129277557571185	-0.01143411915445561	0	0.0270899188943856	0.135226492524304	-0.237783548732228	-0.04050492723412728	0.1181461714549912	0.2540791390520493	0	-0.121404614076535	-0.07806836957299246	-0.09293517908739146	-0.1557762038644066	-0.08776341473549289	-0.2760860950742131	0.5395127762061762	-0.09301243713392854	-0.08027822972457813	-0.363560384849006	0.9501000046184988
0.9199999999999999	-0.0580587295018317	0.06697484860436601	0.00388992348847455	-0.01083054	0.93243558	1.02807652	0.5289939183579749	-0.1568144662024976	-0.1118505995461103	-0.8814583073866459	0.05835288355290828	0.005161780021379619	0	0.003043519461327578	0.1333188188539416	-0.2461215846933396	-0.0319998836839521	0.1267874070609568	0.2721458116551098	0	-0.1297127085652628	-0.0751786699929004	-0.09505394544386074	-0.1600178143646095	-0.08667414689534159	-0.2835451155052454	0.539181486359676	-0.09762292471686967	-0.0821863529917559	-0.3533282755211951	0.9834576919777152
0.9299999999999999	-0.06073757399765472	0.07194590584268795	0.004371402997564995	-0.01140680999999999	0.93127231	1.03786685	0.5421575331374507	-0.1554746535556957	-0.1063060562533977	-0.8360418665577737	0.0585874702906091	0.008067756193009906	0	-0.008177468811520745	0.1400867477187799	-0.2500676680160802	-0.0279013158313866	0.1330306080967037	0.2732581551914334	0	-0.126819587790771	-0.07973689404045643	-0.09749138169460782	-0.1633529619378503	-0.08563293390361715	-0.2840506412219064	0.5379786900876702	-0.09098580164721722	-0.0843506902440606	-0.352812674891427	0.9893363972307452
0.9399999999999999	-0.05533392970307424	0.06750876508369617	0.003736488567420467	-0.01159497000000001	0.93100659	1.04862106	0.538915990539054	-0.1438298550091001	-0.1043191992638003	-0.7806158584470909	0.05570424553297611	0.01941719127402705	0	-0.03366240090266365	0.1370727279870024	-0.2548473031362808	-0.0150587473864981	0.1414386162273899	0.2907510031554122	0	-0.1329865167164752	-0.07554663182497892	-0.09608289976651793	-0.1699362204815948	-0.0832444417465508	-0.2914325969888826	0.5325338968995652	-0.0973905491367982	-0.08371500520216875	-0.343194784451972	1.021218373800815
0.9499999999999997	-0.05780287145724504	0.07367342527032299	0.00425940644957377	-0.01182960999999999	0.92940106	1.05925289	0.5464187445578181	-0.1419504865649477	-0.09391588360834435	-0.727795460056159	0.05401362292825383	0.02356390630293684	0	-0.04585886940241488	0.1447504432347644	-0.2575541660381913	-0.01152994732970098	0.1485079756713524	0.2932175991455711	0	-0.1284379521936644	-0.08334843125591142	-0.09629992779381198	-0.1770040112236256	-0.08009297785977756	-0.2926117187422497	0.5296227742755696	-0.09557058663892888	-0.08592176687073336	-0.3427826303596342	1.028093540232752
0.96	-0.0528345543844099	0.07055110787064754	0.003727900168798671	-0.01205713999999999	0.92877069	1.06923711	0.5406366729494834	-0.1331720930379837	-0.09398890451905637	-0.6647838953182073	0.04222923608967644	0.0359844942772659	0	-0.0642564501484682	0.1423483455380471	-0.2613501709420138	-0.009807838461673964	0.1643345379016987	0.3022177470514437	0	-0.136258970666721	-0.07939634417507684	-0.09682966785944928	-0.1771285263285884	-0.0778843347262793	-0.3004418069932973	0.5239723936934172	-0.09692953612284719	-0.08641362578668658	-0.3344554374310336	1.055012435011867
0.9699999999999998	-0.05565182766351594	0.07799317392285102	0.004340521433767422	-0.01236780000000001	0.92703798	1.07947228	0.5440372834596434	-0.134068554879266	-0.08431479109027511	-0.6040999013216493	0.03837779132576299	0.04327795277545397	0	-0.07307845596278106	0.1510743126904067	-0.261203176694417	-0.01079908634210523	0.1707704759958092	0.3035837768125385	0	-0.132695014442801	-0.08826418320821169	-0.09726289732610367	-0.1821559285639351	-0.0745259727031906	-0.3017021443272804	0.5215905706139558	-0.0946802522995845	-0.08757195613080637	-0.3339199520905646	1.061486299110623
0.98	-0.05097583013118872	0.07735413585560773	0.003942658376366203	-0.01253892000000001	0.92600344	1.08999883	0.5339320483983454	-0.1287219638632549	-0.08385720852096885	-0.5354600551860009	0.02001292485667613	0.06153770748847119	0	-0.09220243785659253	0.1511217315408542	-0.2596550495766116	-0.009065603337875887	0.1836433725035108	0.3017854731525547	0	-0.1389685451121573	-0.08704966181429101	-0.09844873091764222	-0.1816876883160845	-0.07206210256825742	-0.3096309531132098	0.5145669159325822	-0.09621759764593568	-0.08800430315899095	-0.3280512987122957	1.082777486705365
0.9899999999999998	-0.05445880656877677	0.08432015841035026	0.004591046186109692	-0.01269471	0.92387677	1.10043512	0.5328949672990921	-0.130592610897135	-0.07739885586140673	-0.4679930685623636	0.008907651040570399	0.07372365758695233	0	-0.1011490926426219	0.1589309165070494	-0.2541499940091596	-0.009660604231304977	0.1928109814349866	0.3009282264161038	0	-0.1349354286773379	-0.09498665113295743	-0.09851105400723706	-0.1843229120844517	-0.06816856395344437	-0.3130109650730049	0.5099593371153724	-0.09480899057773841	-0.08945267022381205	-0.3265970870634085	1.09298745688068
1	-0.05611225718067259	0.0911990822983091	0.005115624207806917	-0.01302940999999999	0.92190861	1.11068546	0.5288896569263168	-0.1339277809851232	-0.07751757472792373	-0.3993971712135439	-0.006666793666936372	0.08873060395031709	0	-0.1111363492060716	0.1667738886041023	-0.2487400245029549	-0.01154110975746504	0.2018718978656892	0.2971276435136532	0	-0.1339253769686115	-0.1024668804559941	-0.09880955871640321	-0.1854726955512244	-0.06465617313320865	-0.3168875563662482	0.5045699078655358	-0.09421839681520354	-0.09015424196856547	-0.3235638100667961	1.104005744010465
1.01	-0.05611948135076533	0.09617572263662075	0.005394630167644251	-0.01323345000000001	0.92000572	1.12149431	0.5196102743170166	-0.1355691273600081	-0.08162697898074901	-0.3281001443694066	-0.02168569937540165	0.1023317197152587	0	-0.1231147379431215	0.1724365028971136	-0.2414009195361748	-0.01474549132902703	0.212366147444102	0.2862366147973493	0	-0.1331518816016468	-0.1076146543846594	-0.09968683537494875	-0.1866265653573749	-0.06109470417800563	-0.3235904076628661	0.496026650680454	-0.09665937974952363	-0.08995063203256073	-0.3197893784797257	1.116840833021377
1.02	-0.05944966032683895	0.1030890734475077	0.006124905021553107	-0.01333714	0.91772399	1.13230494	0.5138802934564709	-0.1390597577641958	-0.08812828174974174	-0.258175879370355	-0.03073568463446607	0.1136635620519486	0	-0.1312415222186314	0.1796885230900691	-0.2352424257867455	-0.01847449059940463	0.223488691816755	0.2799325858955777	0	-0.1290026929175882	-0.1151400880843885	-0.09972460953594968	-0.1881252253063227	-0.0568403494581376	-0.3296011746500115	0.4897872980957078	-0.09724913959374189	-0.09031489045049944	-0.3175380437200591	1.124868966226109
1.03	-0.06523466106634135	0.1112607745221	0.007253261581675254	-0.01348436	0.9150700899999999	1.142983	0.5121066759079602	-0.1433556661555599	-0.09334335505076516	-0.1932756779663239	-0.03446920989265994	0.1223585145289675	0	-0.1376241068192389	0.1884372770866099	-0.2292129122181043	-0.02032025691760008	0.2304862793076182	0.2771270576111899	0	-0.1222339088414164	-0.1243854582408247	-0.09905121176864659	-0.1909403506326685	-0.05328914443519971	-0.3322970198119529	0.4858325509585602	-0.09610913939555825	-0.0898789255293084	-0.3157564159829463	1.130252953713871
1.04	-0.06998427773928854	0.1178346907006818	0.008240780177214684	-0.01357906	0.91259827	1.15365216	0.5076833832648759	-0.1457683709162733	-0.1058358635057129	-0.1280646681545648	-0.04552577506000101	0.1302529979244979	0	-0.1430258067809146	0.1948424336813676	-0.2241596810296903	-0.02655474980757705	0.2398386917288096	0.2722964702214712	0	-0.116770307636226	-0.1309427361623899	-0.09794098793469952	-0.1915216107234295	-0.04955938699379503	-0.3357549570576581	0.4808441433929604	-0.09652624638324735	-0.08996788216875574	-0.3126802145332435	1.134253159522183
